<svg xmlns="http://www.w3.org/2000/svg" width="120" height="40" xml:space="preserve"><text transform="translate(11.667 -25.821)" fill="#2B3137" font-family="'Arial-BoldMT'" font-size="31.802">Mag88</text><path fill="#2A2A2A" d="M0 0h120v40H0z"/><g fill="#FFF"><path d="M13.351 29.333V6.568h6.879l4.13 15.529 4.084-15.529h6.895v22.765h-4.271v-17.92l-4.519 17.92h-4.425l-4.503-17.92v17.92h-4.27zM43.134 17.872l-3.96-.714c.445-1.595 1.211-2.774 2.299-3.54 1.087-.766 2.701-1.149 4.845-1.149 1.946 0 3.396.23 4.348.69.952.461 1.623 1.047 2.011 1.756.389.709.582 2.01.582 3.904l-.046 5.094c0 1.449.069 2.518.21 3.207.139.688.4 1.426.783 2.213H49.89c-.113-.29-.254-.72-.419-1.289a8.378 8.378 0 0 0-.155-.513c-.746.725-1.543 1.269-2.392 1.63a6.84 6.84 0 0 1-2.718.544c-1.697 0-3.035-.46-4.014-1.382s-1.467-2.086-1.467-3.494c0-.932.222-1.762.667-2.492a4.355 4.355 0 0 1 1.871-1.677c.802-.389 1.959-.728 3.471-1.018 2.039-.383 3.452-.739 4.239-1.071v-.435c0-.839-.207-1.437-.621-1.794s-1.195-.535-2.345-.535c-.776 0-1.382.152-1.817.458-.435.306-.787.841-1.056 1.607zm5.839 3.541c-.559.187-1.444.409-2.655.668-1.212.259-2.003.512-2.376.761-.569.403-.854.916-.854 1.537 0 .61.227 1.14.683 1.584.456.445 1.035.667 1.739.667.787 0 1.537-.258 2.252-.775.527-.394.875-.875 1.04-1.444.114-.373.171-1.081.171-2.128v-.87zM57.157 30.419l4.984.605c.083.58.274.979.574 1.196.414.311 1.066.466 1.957.466 1.139 0 1.992-.171 2.563-.512.383-.229.673-.596.869-1.104.135-.362.202-1.029.202-2.003V26.66c-1.304 1.781-2.95 2.672-4.938 2.672-2.215 0-3.97-.938-5.264-2.811-1.015-1.48-1.521-3.324-1.521-5.529 0-2.764.664-4.875 1.995-6.335 1.33-1.46 2.983-2.189 4.962-2.189 2.039 0 3.721.896 5.046 2.687v-2.314h4.084V27.64c0 1.946-.161 3.4-.481 4.363s-.771 1.719-1.351 2.268c-.58.549-1.354.979-2.321 1.289-.969.311-2.192.466-3.673.466-2.795 0-4.778-.479-5.947-1.437-1.17-.957-1.755-2.172-1.755-3.642a9.994 9.994 0 0 1 .015-.528zm3.897-9.674c0 1.75.339 3.031 1.017 3.844.679.813 1.515 1.219 2.508 1.219 1.066 0 1.967-.416 2.703-1.25.734-.834 1.102-2.068 1.102-3.703 0-1.709-.352-2.977-1.056-3.805s-1.595-1.242-2.671-1.242c-1.045 0-1.907.406-2.586 1.219-.678.812-1.017 2.052-1.017 3.718zM79.797 17.05c-1.129-.477-1.949-1.131-2.462-1.965a5.124 5.124 0 0 1-.769-2.74c0-1.697.593-3.101 1.778-4.208 1.185-1.107 2.87-1.662 5.054-1.662 2.164 0 3.844.554 5.039 1.662 1.196 1.108 1.794 2.511 1.794 4.208 0 1.056-.274 1.995-.823 2.818-.549.822-1.32 1.451-2.313 1.887 1.263.508 2.224 1.248 2.88 2.221.658.973.986 2.096.986 3.369 0 2.102-.67 3.811-2.011 5.125s-3.124 1.972-5.349 1.972c-2.071 0-3.795-.544-5.172-1.63-1.625-1.284-2.438-3.045-2.438-5.28a6.54 6.54 0 0 1 .916-3.394c.613-1.03 1.575-1.825 2.89-2.383zm.496 5.357c0 1.201.309 2.138.924 2.811.616.673 1.385 1.01 2.307 1.01.9 0 1.646-.324 2.236-.971.59-.647.885-1.582.885-2.803 0-1.066-.301-1.924-.9-2.57-.602-.646-1.361-.971-2.283-.971-1.066 0-1.861.367-2.383 1.103-.524.735-.786 1.532-.786 2.391zm.405-9.752c0 .869.246 1.547.737 2.034.491.486 1.146.729 1.964.729.828 0 1.491-.246 1.988-.737s.745-1.173.745-2.042c0-.818-.246-1.473-.737-1.965-.492-.491-1.142-.737-1.949-.737-.838 0-1.506.249-2.003.745-.497.498-.745 1.155-.745 1.973zM97.484 17.05c-1.128-.477-1.948-1.131-2.462-1.965a5.132 5.132 0 0 1-.768-2.74c0-1.697.592-3.101 1.777-4.208 1.186-1.107 2.871-1.662 5.055-1.662 2.164 0 3.844.554 5.039 1.662 1.195 1.108 1.793 2.511 1.793 4.208 0 1.056-.273 1.995-.822 2.818-.549.822-1.32 1.451-2.314 1.887 1.264.508 2.224 1.248 2.881 2.221.658.973.986 2.096.986 3.369 0 2.102-.67 3.811-2.012 5.125-1.34 1.314-3.123 1.972-5.349 1.972-2.071 0-3.794-.544-5.171-1.63-1.625-1.284-2.438-3.045-2.438-5.28a6.54 6.54 0 0 1 .916-3.394c.612-1.03 1.573-1.825 2.889-2.383zm.497 5.357c0 1.201.308 2.138.924 2.811.615.673 1.385 1.01 2.307 1.01.9 0 1.646-.324 2.235-.971.591-.647.886-1.582.886-2.803 0-1.066-.301-1.924-.901-2.57s-1.361-.971-2.282-.971c-1.066 0-1.861.367-2.384 1.103s-.785 1.532-.785 2.391zm.404-9.752c0 .869.245 1.547.736 2.034.492.486 1.146.729 1.965.729.828 0 1.49-.246 1.988-.737.496-.491.744-1.173.744-2.042 0-.818-.246-1.473-.736-1.965-.492-.491-1.143-.737-1.949-.737-.839 0-1.506.249-2.004.745-.496.498-.744 1.155-.744 1.973z"/></g></svg>